<svg width="120" height="120" viewBox="0 0 120 120" xmlns="http://www.w3.org/2000/svg">
  <defs>
    <radialGradient id="bell" cx="35%" cy="25%" r="72%">
      <stop offset="0%"   stop-color="#ddd6fe"/>
      <stop offset="45%"  stop-color="#7c3aed"/>
      <stop offset="100%" stop-color="#2e1065"/>
    </radialGradient>
    <radialGradient id="glow" cx="50%" cy="55%" r="55%">
      <stop offset="0%"   stop-color="#7c3aed" stop-opacity="0.45"/>
      <stop offset="100%" stop-color="#7c3aed" stop-opacity="0"/>
    </radialGradient>
    <radialGradient id="underglow" cx="50%" cy="0%" r="100%">
      <stop offset="0%"   stop-color="#a78bfa" stop-opacity="0.3"/>
      <stop offset="100%" stop-color="#a78bfa" stop-opacity="0"/>
    </radialGradient>
    <filter id="gf" x="-60%" y="-60%" width="220%" height="220%">
      <feGaussianBlur stdDeviation="2.5" result="b"/>
      <feMerge><feMergeNode in="b"/><feMergeNode in="SourceGraphic"/></feMerge>
    </filter>
  </defs>

  <ellipse cx="60" cy="58" rx="40" ry="36" fill="url(#glow)"/>
  <ellipse cx="60" cy="78" rx="28" ry="14" fill="url(#underglow)"/>
  <ellipse cx="60" cy="72" rx="34" ry="10" fill="#2e1065" opacity="0.50"/>
  <path d="M 14 58 Q 14 14 60 12 Q 106 14 106 58 Q 102 84 60 86 Q 18 84 14 58 Z" fill="url(#bell)"/>
  <ellipse cx="42" cy="32" rx="11" ry="18" fill="white" opacity="0.09" transform="rotate(-18 42 32)"/>
  <path d="M 26 46 Q 60 36 94 46" fill="none" stroke="white" stroke-width="1" opacity="0.15"/>
  <path d="M 22 60 Q 60 68 98 60" fill="none" stroke="#c4b5fd" stroke-width="0.8" opacity="0.30"/>
  <circle cx="18"  cy="56" r="2.8" fill="#38BDF8" filter="url(#gf)" opacity="0.90"/>
  <circle cx="102" cy="54" r="2.8" fill="#38BDF8" filter="url(#gf)" opacity="0.90"/>
  <circle cx="24"  cy="70" r="1.8" fill="#a78bfa"  filter="url(#gf)" opacity="0.70"/>
  <circle cx="96"  cy="68" r="1.8" fill="#a78bfa"  filter="url(#gf)" opacity="0.70"/>
  <path d="M 38 54 Q 46 47 54 54" fill="none" stroke="white" stroke-width="3" stroke-linecap="round"/>
  <path d="M 66 54 Q 74 47 82 54" fill="none" stroke="white" stroke-width="3" stroke-linecap="round"/>
</svg>
