<svg width="192" height="192" viewBox="0 0 192 192" fill="none" xmlns="http://www.w3.org/2000/svg">
<g clip-path="url(#clip0_2001_72)">
<path d="M192 0H0V192H192V0Z" fill="url(#paint0_radial_2001_72)"/>
<path d="M192 0H0V192H192V0Z" fill="url(#paint1_radial_2001_72)"/>
<path opacity="0.8" d="M16.0001 20.64C16.7953 20.64 17.4401 19.9953 17.4401 19.2C17.4401 18.4047 16.7953 17.76 16.0001 17.76C15.2048 17.76 14.5601 18.4047 14.5601 19.2C14.5601 19.9953 15.2048 20.64 16.0001 20.64Z" fill="white"/>
<path opacity="0.55" d="M172.8 29.9199C173.418 29.9199 173.92 29.4185 173.92 28.7999C173.92 28.1814 173.418 27.6799 172.8 27.6799C172.181 27.6799 171.68 28.1814 171.68 28.7999C171.68 29.4185 172.181 29.9199 172.8 29.9199Z" fill="white"/>
<path opacity="0.45" d="M179.2 155.2C180.084 155.2 180.8 154.484 180.8 153.6C180.8 152.716 180.084 152 179.2 152C178.316 152 177.6 152.716 177.6 153.6C177.6 154.484 178.316 155.2 179.2 155.2Z" fill="white"/>
<path opacity="0.65" d="M12.8 158.08C13.5069 158.08 14.08 157.507 14.08 156.8C14.08 156.093 13.5069 155.52 12.8 155.52C12.0931 155.52 11.52 156.093 11.52 156.8C11.52 157.507 12.0931 158.08 12.8 158.08Z" fill="white"/>
<path opacity="0.5" d="M160 84.16C160.53 84.16 160.96 83.7302 160.96 83.2C160.96 82.6698 160.53 82.24 160 82.24C159.47 82.24 159.04 82.6698 159.04 83.2C159.04 83.7302 159.47 84.16 160 84.16Z" fill="white"/>
<path opacity="0.45" d="M25.6 97.1199C26.2185 97.1199 26.72 96.6184 26.72 95.9999C26.72 95.3813 26.2185 94.8799 25.6 94.8799C24.9814 94.8799 24.48 95.3813 24.48 95.9999C24.48 96.6184 24.9814 97.1199 25.6 97.1199Z" fill="white"/>
<path opacity="0.4" d="M88 173.76C88.5302 173.76 88.96 173.33 88.96 172.8C88.96 172.27 88.5302 171.84 88 171.84C87.4698 171.84 87.04 172.27 87.04 172.8C87.04 173.33 87.4698 173.76 88 173.76Z" fill="white"/>
<path opacity="0.6" d="M156.8 14.08C157.507 14.08 158.08 13.5069 158.08 12.8C158.08 12.0931 157.507 11.52 156.8 11.52C156.093 11.52 155.52 12.0931 155.52 12.8C155.52 13.5069 156.093 14.08 156.8 14.08Z" fill="white"/>
<path opacity="0.4" d="M35.2 48.96C35.7302 48.96 36.16 48.5302 36.16 48C36.16 47.4698 35.7302 47.04 35.2 47.04C34.6698 47.04 34.24 47.4698 34.24 48C34.24 48.5302 34.6698 48.96 35.2 48.96Z" fill="white"/>
<path opacity="0.5" d="M140.8 169.12C141.418 169.12 141.92 168.618 141.92 168C141.92 167.381 141.418 166.88 140.8 166.88C140.181 166.88 139.68 167.381 139.68 168C139.68 168.618 140.181 169.12 140.8 169.12Z" fill="white"/>
<path opacity="0.5" d="M7.99995 67.9999C8.44178 67.9999 8.79995 67.6417 8.79995 67.1999C8.79995 66.7581 8.44178 66.3999 7.99995 66.3999C7.55812 66.3999 7.19995 66.7581 7.19995 67.1999C7.19995 67.6417 7.55812 67.9999 7.99995 67.9999Z" fill="white"/>
<path opacity="0.4" d="M182.4 112.96C182.93 112.96 183.36 112.53 183.36 112C183.36 111.47 182.93 111.04 182.4 111.04C181.87 111.04 181.44 111.47 181.44 112C181.44 112.53 181.87 112.96 182.4 112.96Z" fill="white"/>
<path opacity="0.55" d="M89.995 11.4275C90.6136 11.4275 91.115 10.9261 91.115 10.3075C91.115 9.68894 90.6136 9.1875 89.995 9.1875C89.3764 9.1875 88.875 9.68894 88.875 10.3075C88.875 10.9261 89.3764 11.4275 89.995 11.4275Z" fill="white"/>
<path opacity="0.4" d="M48 180C48.4418 180 48.8 179.642 48.8 179.2C48.8 178.758 48.4418 178.4 48 178.4C47.5581 178.4 47.2 178.758 47.2 179.2C47.2 179.642 47.5581 180 48 180Z" fill="white"/>
<path opacity="0.7" d="M150.4 49.9201C151.46 49.9201 152.32 49.0605 152.32 48.0001C152.32 46.9397 151.46 46.0801 150.4 46.0801C149.34 46.0801 148.48 46.9397 148.48 48.0001C148.48 49.0605 149.34 49.9201 150.4 49.9201Z" fill="white"/>
<path opacity="0.6" d="M22.3999 132.96C23.3719 132.96 24.1599 132.172 24.1599 131.2C24.1599 130.228 23.3719 129.44 22.3999 129.44C21.4279 129.44 20.6399 130.228 20.6399 131.2C20.6399 132.172 21.4279 132.96 22.3999 132.96Z" fill="white"/>
<path opacity="0.5" d="M95.9999 184C96.8836 184 97.5999 183.284 97.5999 182.4C97.5999 181.516 96.8836 180.8 95.9999 180.8C95.1162 180.8 94.3999 181.516 94.3999 182.4C94.3999 183.284 95.1162 184 95.9999 184Z" fill="white"/>
<path d="M96 150.4C131.346 150.4 160 124.612 160 92.8C160 60.9883 131.346 35.2 96 35.2C60.6538 35.2 32 60.9883 32 92.8C32 124.612 60.6538 150.4 96 150.4Z" fill="url(#paint2_radial_2001_72)"/>
<path d="M96 147.2C120.742 147.2 140.8 137.171 140.8 124.8C140.8 112.429 120.742 102.4 96 102.4C71.2576 102.4 51.2 112.429 51.2 124.8C51.2 137.171 71.2576 147.2 96 147.2Z" fill="url(#paint3_radial_2001_72)"/>
<path opacity="0.6" d="M96.0001 131.2C126.044 131.2 150.4 124.037 150.4 115.2C150.4 106.363 126.044 99.2 96.0001 99.2C65.9558 99.2 41.6001 106.363 41.6001 115.2C41.6001 124.037 65.9558 131.2 96.0001 131.2Z" fill="#2E1065"/>
<path d="M22.3999 92.8C22.3999 45.8666 46.9332 21.3333 95.9999 19.2C145.067 21.3333 169.6 45.8666 169.6 92.8C165.333 120.533 140.8 135.467 95.9999 137.6C51.1999 135.467 26.6666 120.533 22.3999 92.8Z" fill="url(#paint4_radial_2001_72)"/>
<path opacity="0.09" d="M76.0997 78.5905C85.3442 75.5867 88.8538 60.8886 83.9386 45.7613C79.0235 30.634 67.5448 20.8059 58.3004 23.8096C49.0559 26.8133 45.5463 41.5114 50.4615 56.6387C55.3766 71.766 66.8553 81.5942 76.0997 78.5905Z" fill="white"/>
<g opacity="0.9" filter="url(#filter0_f_2001_72)">
<path d="M28.8001 94.0801C31.2743 94.0801 33.2801 92.0744 33.2801 89.6001C33.2801 87.1259 31.2743 85.1201 28.8001 85.1201C26.3258 85.1201 24.3201 87.1259 24.3201 89.6001C24.3201 92.0744 26.3258 94.0801 28.8001 94.0801Z" fill="#38BDF8"/>
</g>
<g opacity="0.9" filter="url(#filter1_f_2001_72)">
<path d="M163.2 90.8799C165.674 90.8799 167.68 88.8742 167.68 86.3999C167.68 83.9257 165.674 81.9199 163.2 81.9199C160.726 81.9199 158.72 83.9257 158.72 86.3999C158.72 88.8742 160.726 90.8799 163.2 90.8799Z" fill="#38BDF8"/>
</g>
<g opacity="0.7" filter="url(#filter2_f_2001_72)">
<path d="M38.4 114.88C39.9906 114.88 41.28 113.591 41.28 112C41.28 110.41 39.9906 109.12 38.4 109.12C36.8094 109.12 35.52 110.41 35.52 112C35.52 113.591 36.8094 114.88 38.4 114.88Z" fill="#A78BFA"/>
</g>
<g opacity="0.7" filter="url(#filter3_f_2001_72)">
<path d="M153.6 111.68C155.191 111.68 156.48 110.391 156.48 108.8C156.48 107.209 155.191 105.92 153.6 105.92C152.009 105.92 150.72 107.209 150.72 108.8C150.72 110.391 152.009 111.68 153.6 111.68Z" fill="#A78BFA"/>
</g>
<path d="M60.8 86.4C69.3334 78.9334 77.8667 78.9334 86.4001 86.4" stroke="white" stroke-width="7" stroke-linecap="round"/>
<path d="M101 86.6C109.533 79.1333 118.067 79.1333 126.6 86.6" stroke="white" stroke-width="7" stroke-linecap="round"/>
</g>
<defs>
<filter id="filter0_f_2001_72" x="-18.3466" y="42.4534" width="94.2933" height="94.2933" filterUnits="userSpaceOnUse" color-interpolation-filters="sRGB">
<feFlood flood-opacity="0" result="BackgroundImageFix"/>
<feBlend mode="normal" in="SourceGraphic" in2="BackgroundImageFix" result="shape"/>
<feGaussianBlur stdDeviation="21.3333" result="effect1_foregroundBlur_2001_72"/>
</filter>
<filter id="filter1_f_2001_72" x="116.053" y="39.2533" width="94.2933" height="94.2933" filterUnits="userSpaceOnUse" color-interpolation-filters="sRGB">
<feFlood flood-opacity="0" result="BackgroundImageFix"/>
<feBlend mode="normal" in="SourceGraphic" in2="BackgroundImageFix" result="shape"/>
<feGaussianBlur stdDeviation="21.3333" result="effect1_foregroundBlur_2001_72"/>
</filter>
<filter id="filter2_f_2001_72" x="-7.14665" y="66.4534" width="91.0933" height="91.0933" filterUnits="userSpaceOnUse" color-interpolation-filters="sRGB">
<feFlood flood-opacity="0" result="BackgroundImageFix"/>
<feBlend mode="normal" in="SourceGraphic" in2="BackgroundImageFix" result="shape"/>
<feGaussianBlur stdDeviation="21.3333" result="effect1_foregroundBlur_2001_72"/>
</filter>
<filter id="filter3_f_2001_72" x="108.053" y="63.2533" width="91.0933" height="91.0933" filterUnits="userSpaceOnUse" color-interpolation-filters="sRGB">
<feFlood flood-opacity="0" result="BackgroundImageFix"/>
<feBlend mode="normal" in="SourceGraphic" in2="BackgroundImageFix" result="shape"/>
<feGaussianBlur stdDeviation="21.3333" result="effect1_foregroundBlur_2001_72"/>
</filter>
<radialGradient id="paint0_radial_2001_72" cx="0" cy="0" r="1" gradientUnits="userSpaceOnUse" gradientTransform="translate(96 57.6) scale(153.6)">
<stop stop-color="#120828"/>
<stop offset="1" stop-color="#030108"/>
</radialGradient>
<radialGradient id="paint1_radial_2001_72" cx="0" cy="0" r="1" gradientUnits="userSpaceOnUse" gradientTransform="translate(96 57.6) scale(153.6)">
<stop stop-color="#120828"/>
<stop offset="1" stop-color="#030108"/>
</radialGradient>
<radialGradient id="paint2_radial_2001_72" cx="0" cy="0" r="1" gradientUnits="userSpaceOnUse" gradientTransform="translate(96 98.56) scale(70.4 63.36)">
<stop stop-color="#7C3AED" stop-opacity="0.45"/>
<stop offset="1" stop-color="#7C3AED" stop-opacity="0"/>
</radialGradient>
<radialGradient id="paint3_radial_2001_72" cx="0" cy="0" r="1" gradientUnits="userSpaceOnUse" gradientTransform="translate(96 102.4) scale(89.6 44.8)">
<stop stop-color="#A78BFA" stop-opacity="0.3"/>
<stop offset="1" stop-color="#A78BFA" stop-opacity="0"/>
</radialGradient>
<radialGradient id="paint4_radial_2001_72" cx="0" cy="0" r="1" gradientUnits="userSpaceOnUse" gradientTransform="translate(73.9199 48.8) scale(105.984 85.248)">
<stop stop-color="#DDD6FE"/>
<stop offset="0.45" stop-color="#7C3AED"/>
<stop offset="1" stop-color="#2E1065"/>
</radialGradient>
<clipPath id="clip0_2001_72">
<rect width="192" height="192" fill="white"/>
</clipPath>
</defs>
</svg>
